# xmcd
#
# Track frame offsets: 
#        150
#        19761
#        37999
#        59916
#        83535
#        108606
#        127825
#        147180
#        166724
#        196936
#        220889
#        247945
#        273935
#
# Disc length: 4157 seconds
#
# Revision: 0
# Processed by: cddbd v1.4PL0 Copyright (c) Steve Scherf et al.
# Submitted via: ExactAudioCopy v0.90b4
#
DISCID=ab103b0d
DTITLE=Popa Chubby - The good, the bad and the chuuby
DYEAR=2002
DGENRE=Blues
TTITLE0=Somebody Let The Devil Out
TTITLE1=If The Diesel Don't Get You The The Jet Fuel Will
TTITLE2=I Can't See The Light Of Day
TTITLE3=I'll Be There For You
TTITLE4=Stress Will Kill You Every Time
TTITLE5=No Trouble No More
TTITLE6=Bad Connection
TTITLE7=Strange Way Of Saying I Love You
TTITLE8=My Last Cigarette
TTITLE9=Already Stoned
TTITLE10=Dirty Lie(Studio Version)
TTITLE11=Passion
TTITLE12=Play It From The Heart
EXTD=
EXTT0=
EXTT1=
EXTT2=
EXTT3=
EXTT4=
EXTT5=
EXTT6=
EXTT7=
EXTT8=
EXTT9=
EXTT10=
EXTT11=
EXTT12=
PLAYORDER=
